<?xml version="1.0" standalone="no"?>
<!DOCTYPE svg PUBLIC "-//W3C//DTD SVG 20010904//EN"
 "http://www.w3.org/TR/2001/REC-SVG-20010904/DTD/svg10.dtd">
<svg version="1.0" xmlns="http://www.w3.org/2000/svg"
 width="512.000000pt" height="512.000000pt" viewBox="0 0 512.000000 512.000000"
 preserveAspectRatio="xMidYMid meet">

<g transform="translate(0.000000,512.000000) scale(0.100000,-0.100000)"
fill="#000000" stroke="none">
<path d="M3740 4802 c-13 -2 -290 -130 -614 -283 l-590 -279 -211 0 -210 0
-324 274 c-211 178 -335 276 -354 280 -16 3 -270 6 -564 6 -509 0 -536 -1
-572 -19 -80 -41 -75 -5 -81 -651 l-5 -575 -55 -5 c-70 -7 -115 -34 -140 -85
l-20 -41 80 -1465 c44 -805 83 -1484 86 -1509 5 -35 15 -54 48 -86 35 -36 49
-43 96 -48 30 -4 1063 -6 2295 -4 2220 3 2240 3 2273 23 43 26 71 71 77 126
17 130 164 2948 156 2976 -21 74 -60 103 -151 112 l-55 6 -5 290 c-4 207 -9
296 -18 312 -7 12 -29 35 -49 50 l-36 28 -330 5 -331 5 -111 236 c-61 130
-119 248 -128 263 -28 42 -98 68 -157 58z m-2106 -579 c167 -142 303 -259 302
-259 0 -1 -192 -92 -425 -203 l-424 -201 -269 0 -268 0 0 460 0 460 391 0 390
0 303 -257z m2264 -220 c111 -236 202 -434 202 -440 0 -10 -232 -13 -1125 -13
-619 0 -1125 3 -1125 8 1 6 1824 869 1841 871 3 1 96 -191 207 -426z m682
-268 l0 -175 -58 0 -58 0 -80 166 c-43 92 -80 171 -82 175 -2 5 60 9 137 9
l141 0 0 -175z m210 -512 c0 -5 -32 -573 -70 -1263 -38 -690 -70 -1272 -70
-1292 l0 -38 -2088 0 -2087 0 -68 1278 c-37 702 -68 1287 -68 1300 l1 22 2225
0 c1224 0 2225 -3 2225 -7z"/>
</g>
</svg>
